<!-- MathStack AI Logo: Polished Version -->
<svg version="1.1" xmlns="http://www.w3.org/2000/svg" style="display: block;" viewBox="0 0 2048 2048" width="1024" height="1024">
  <defs>
    <!-- Drop Shadow Filter -->
    <filter id="dropshadow" x="-20%" y="-20%" width="140%" height="140%">
      <feDropShadow dx="0" dy="16" stdDeviation="24" flood-color="#6C63FF" flood-opacity="0.18"/>
    </filter>
    <!-- Main Gradient -->
    <linearGradient id="mainGradient" x1="60%" y1="0%" x2="40%" y2="100%">
      <stop offset="0%" stop-color="#87f0ff"/>
      <stop offset="40%" stop-color="#6C63FF"/>
      <stop offset="80%" stop-color="#b37fff"/>
      <stop offset="100%" stop-color="#5E60CE"/>
    </linearGradient>
    <!-- Glass Overlay Gradient -->
    <linearGradient id="glassGradient" x1="0%" y1="0%" x2="0%" y2="100%">
      <stop offset="0%" stop-color="#fff" stop-opacity="0.65"/>
      <stop offset="80%" stop-color="#fff" stop-opacity="0.02"/>
      <stop offset="100%" stop-color="#fff" stop-opacity="0"/>
    </linearGradient>
  </defs>
  
  <!-- Icon Group with Shadow -->
  <g filter="url(#dropshadow)">
    <!-- Main Stacked Layers (use mainGradient) -->
    <path fill="url(#mainGradient)" d="M 893.601 694.363 C 915.016 684.308 935.906 673.125 956.717 661.876 C 975.155 651.91 1009.57 630.903 1028.62 626.683 C 1035.19 625.229 1043.12 627.606 1049.32 629.887 C 1065 635.656 1080.05 645.323 1094.7 653.382 L 1156.5 686.692 L 1256.8 739.97 C 1273.77 748.938 1291.31 757.433 1307.87 767.124 C 1311.91 769.485 1317.46 772.569 1319.57 776.894 C 1320.28 778.344 1320.44 779.947 1320.6 781.523 C 1320.48 787.672 1321.38 794.784 1316.45 799.35 C 1304.02 810.861 1228.16 848.496 1209.89 857.02 L 1281.29 896.268 C 1292.2 902.237 1305.02 907.655 1315.05 914.898 C 1317.29 916.512 1319.1 918.23 1319.97 920.928 C 1320.13 921.426 1320.26 921.934 1320.4 922.437 C 1320.27 927.941 1320.37 933.562 1319.78 939.036 C 1310.28 947.8 1296.03 954.619 1284.15 959.696 C 1280.08 963.607 1218.45 996.109 1211.86 997.961 C 1224.49 1003.08 1300.3 1042.42 1308.21 1050.22 C 1309.98 1051.97 1309.48 1051.89 1309.44 1054.16 C 1307.34 1058.07 1304.88 1060.73 1301.32 1063.39 C 1292.6 1069.91 1281.38 1074.5 1271.77 1079.64 C 1249.22 1091.8 1226.59 1103.8 1203.87 1115.64 L 1103.34 1168.08 C 1086.97 1176.49 1070.27 1186.31 1053.21 1193.19 C 1045.9 1196.14 1035.46 1199.22 1027.6 1197.96 C 1020.76 1196.86 1013.8 1194.01 1007.57 1191.05 C 974.547 1175.35 942.751 1156.61 910.276 1139.76 C 876.903 1122.82 843.737 1105.47 810.785 1087.72 C 796.576 1080.23 781.816 1073.46 767.841 1065.59 C 764.461 1063.69 761.725 1061.76 759.499 1058.56 C 758.845 1055.71 758.098 1051.83 759.817 1049.16 C 762.05 1045.69 847.433 1000.83 854.633 998.264 C 841.093 991.074 753.174 946.385 748.735 940.276 C 745.704 936.104 746.788 928.694 746.897 923.76 C 746.872 921.772 746.67 919.222 747.607 917.412 C 748.539 915.614 750.479 914.311 752.158 913.278 C 767.217 904.014 784.075 896.598 799.705 888.222 C 818.628 878.081 837.557 866.355 857.067 857.519 C 842.503 850.212 755.248 805.343 749.113 797.652 C 745.705 793.379 746.73 785.533 746.709 780.327 C 746.741 779.117 746.707 777.698 746.958 776.495 C 747.706 772.905 749.447 771.368 752.275 769.372 C 759.83 764.04 769.082 760.936 777.21 756.499 C 800.978 743.501 824.902 730.793 848.978 718.376 C 863.642 710.792 879.959 703.582 893.601 694.363 z"/>
    <!-- Glassmorphism Overlay -->
    <path fill="url(#glassGradient)" d="M 893.601 694.363 C 915.016 684.308 935.906 673.125 956.717 661.876 C 975.155 651.91 1009.57 630.903 1028.62 626.683 C 1035.19 625.229 1043.12 627.606 1049.32 629.887 C 1065 635.656 1080.05 645.323 1094.7 653.382 L 1156.5 686.692 L 1256.8 739.97 C 1273.77 748.938 1291.31 757.433 1307.87 767.124 C 1311.91 769.485 1317.46 772.569 1319.57 776.894 C 1320.28 778.344 1320.44 779.947 1320.6 781.523 C 1320.48 787.672 1321.38 794.784 1316.45 799.35 C 1304.02 810.861 1228.16 848.496 1209.89 857.02 L 1281.29 896.268 C 1292.2 902.237 1305.02 907.655 1315.05 914.898 C 1317.29 916.512 1319.1 918.23 1319.97 920.928 C 1320.13 921.426 1320.26 921.934 1320.4 922.437 C 1320.27 927.941 1320.37 933.562 1319.78 939.036 C 1310.28 947.8 1296.03 954.619 1284.15 959.696 C 1280.08 963.607 1218.45 996.109 1211.86 997.961 C 1224.49 1003.08 1300.3 1042.42 1308.21 1050.22 C 1309.98 1051.97 1309.48 1051.89 1309.44 1054.16 C 1307.34 1058.07 1304.88 1060.73 1301.32 1063.39 C 1292.6 1069.91 1281.38 1074.5 1271.77 1079.64 C 1249.22 1091.8 1226.59 1103.8 1203.87 1115.64 L 1103.34 1168.08 C 1086.97 1176.49 1070.27 1186.31 1053.21 1193.19 C 1045.9 1196.14 1035.46 1199.22 1027.6 1197.96 C 1020.76 1196.86 1013.8 1194.01 1007.57 1191.05 C 974.547 1175.35 942.751 1156.61 910.276 1139.76 C 876.903 1122.82 843.737 1105.47 810.785 1087.72 C 796.576 1080.23 781.816 1073.46 767.841 1065.59 C 764.461 1063.69 761.725 1061.76 759.499 1058.56 C 758.845 1055.71 758.098 1051.83 759.817 1049.16 C 762.05 1045.69 847.433 1000.83 854.633 998.264 C 841.093 991.074 753.174 946.385 748.735 940.276 C 745.704 936.104 746.788 928.694 746.897 923.76 C 746.872 921.772 746.67 919.222 747.607 917.412 C 748.539 915.614 750.479 914.311 752.158 913.278 C 767.217 904.014 784.075 896.598 799.705 888.222 C 818.628 878.081 837.557 866.355 857.067 857.519 C 842.503 850.212 755.248 805.343 749.113 797.652 C 745.705 793.379 746.73 785.533 746.709 780.327 C 746.741 779.117 746.707 777.698 746.958 776.495 C 747.706 772.905 749.447 771.368 752.275 769.372 C 759.83 764.04 769.082 760.936 777.21 756.499 C 800.978 743.501 824.902 730.793 848.978 718.376 C 863.642 710.792 879.959 703.582 893.601 694.363 z"/>
  </g>
</svg>
